<?xml version="1.0" standalone="no"?>
<!DOCTYPE svg PUBLIC "-//W3C//DTD SVG 20010904//EN"
 "http://www.w3.org/TR/2001/REC-SVG-20010904/DTD/svg10.dtd">
<svg version="1.0" xmlns="http://www.w3.org/2000/svg"
 width="500.000000pt" height="500.000000pt" viewBox="0 0 500.000000 500.000000"
 preserveAspectRatio="xMidYMid meet">
<metadata>
Created by potrace 1.14, written by Peter Selinger 2001-2017
</metadata>
<g transform="translate(0.000000,500.000000) scale(0.100000,-0.100000)"
fill="#000000" stroke="none">
<path d="M594 3568 c-2 -4 12 -53 32 -110 19 -57 62 -179 94 -273 88 -257 217
-628 223 -645 3 -8 34 -96 68 -195 149 -436 240 -702 249 -722 6 -14 19 -23
32 -24 133 -3 509 -1 514 4 4 3 17 37 29 74 13 37 64 187 115 333 50 146 98
283 105 305 7 22 58 171 113 330 55 160 143 416 196 570 53 154 103 296 111
317 11 27 11 37 2 40 -10 3 -350 2 -427 -1 -29 -1 -27 3 -110 -261 -28 -91
-69 -219 -90 -285 -21 -66 -71 -221 -110 -345 -144 -454 -195 -605 -204 -603
-8 2 -44 100 -66 178 -4 17 -27 89 -50 160 -23 72 -54 171 -70 220 -16 50 -47
149 -70 220 -23 72 -52 164 -65 205 -87 281 -158 496 -166 505 -10 10 -448 14
-455 3z"/>
<path d="M2724 3572 l-21 -3 0 -984 0 -985 26 -1 c14 0 190 -1 391 -1 441 0
485 3 640 52 245 76 432 246 528 480 63 154 77 243 77 475 0 169 -12 254 -50
370 -110 334 -369 538 -750 591 -48 7 -799 12 -841 6z m801 -366 c17 -3 39 -8
50 -10 52 -10 140 -51 183 -86 134 -105 195 -267 195 -516 0 -298 -84 -484
-259 -572 -107 -54 -173 -65 -404 -66 l-165 -1 -1 625 c-1 344 0 628 2 631 4
7 362 4 399 -5z"/>
</g>
</svg>
